<svg xmlns="http://www.w3.org/2000/svg" viewBox="0 0 64 64" fill="none">
  <path
    d="M10 20C18 15 28 12.5 39 12.5C47.5 12.5 54.5 14.5 60 18"
    stroke="#F26A4B"
    stroke-width="3.5"
    stroke-linecap="round"
  />
  <path
    d="M26 28C24.4 27.2 22.6 26.8 20.6 26.8C14.9 26.8 11.1 30.9 11.1 37.1C11.1 43.3 15 47.5 20.7 47.5C23 47.5 25 46.9 26.4 45.8V38.7H21V34.3H31.4V48.4C28.7 50.7 24.9 52 20.6 52C11.8 52 5.8 45.8 5.8 37.1C5.8 28.4 11.9 22.3 20.8 22.3C24.2 22.3 27.2 23 29.6 24.5L26 28Z"
    fill="#003A8C"
  />
  <path
    d="M30 23H36.2L39.7 42.6L45 23H50.3L55.5 42.6L59 23H64.8L58.3 51H52.4L47.4 32.5L42.3 51H36.5L30 23Z"
    fill="#0072CE"
  />
</svg>
